<svg width="514" height="516" viewBox="0 0 514 516" version="1.1" xmlns="http://www.w3.org/2000/svg" xmlns:xlink="http://www.w3.org/1999/xlink">
<title>Vector</title>
<desc>Created using Figma</desc>
<g id="Canvas" transform="translate(1379 58)">
<g id="Vector">
<use xlink:href="#path0_fill" transform="translate(-1378 -56)" fill="#FFFFFF"/>
<use xlink:href="#path1_fill" transform="translate(-1378 -56)" fill="#FFFFFF"/>
<use xlink:href="#path2_stroke" transform="translate(-1378 -56)" fill="#FFFFFF"/>
</g>
</g>
<defs>
<path id="path0_fill" d="M 145.231 132.458C 76.4141 268.014 44.7947 350.731 0 509.453C 48.3783 395.491 78.4846 336.141 141.538 244.537C 182.946 340.741 199.58 400.575 224 512C 268.37 390.794 294.16 323.199 349.538 206.328L 315.077 236.896C 349.884 142.274 370.832 90.9784 408.615 0C 345.692 107.717 312.911 168.797 263.385 280.199L 295.385 264.915C 266.635 313.878 251.165 341.25 226.462 389.731C 203.427 286.263 186.62 229.595 145.231 132.458Z"/>
<path id="path1_fill" d="M 402.462 170.667C 339.086 304.939 309.604 379.786 265.846 512C 294.449 454.2 311.956 422.19 349.538 366.806L 349.538 410.109C 374.224 369.973 388.843 346.461 416 303.124L 361.846 338.786C 385.588 272.134 401.669 235.307 435.692 170.667C 474.021 300.334 489.84 375.448 512 512C 501.572 306.212 489.171 193.648 450.462 0C 415.368 73.0399 397.13 114.926 366.769 191.045L 402.462 170.667Z"/>
<path id="path2_stroke" d="M 0 509.453L -0.481203 509.317L 0.460246 509.648L 0 509.453ZM 145.231 132.458L 145.691 132.262L 145.27 131.275L 144.785 132.231L 145.231 132.458ZM 226.462 389.731L 225.973 389.84L 226.276 391.197L 226.907 389.958L 226.462 389.731ZM 295.385 264.915L 295.816 265.169L 296.643 263.761L 295.169 264.464L 295.385 264.915ZM 263.385 280.199L 262.928 279.996L 262.377 281.234L 263.6 280.65L 263.385 280.199ZM 408.615 0L 409.077 0.19177L 408.184 -0.2522L 408.615 0ZM 315.077 236.896L 314.608 236.723L 315.409 237.27L 315.077 236.896ZM 349.538 206.328L 349.99 206.542L 349.207 205.954L 349.538 206.328ZM 224 512L 223.512 512.107L 223.879 513.784L 224.47 512.172L 224 512ZM 141.538 244.537L 141.998 244.34L 141.64 243.508L 141.127 244.254L 141.538 244.537ZM 265.846 512L 265.371 511.843L 266.294 512.222L 265.846 512ZM 402.462 170.667L 402.914 170.88L 403.59 169.446L 402.214 170.232L 402.462 170.667ZM 366.769 191.045L 366.305 190.86L 365.775 192.188L 367.017 191.479L 366.769 191.045ZM 450.462 0L 450.952 -0.0980091L 450.659 -1.56477L 450.011 -0.216536L 450.462 0ZM 512 512L 511.506 512.08L 512.499 511.975L 512 512ZM 435.692 170.667L 436.172 170.525L 435.823 169.345L 435.25 170.434L 435.692 170.667ZM 361.846 338.786L 361.375 338.618L 360.874 340.025L 362.121 339.204L 361.846 338.786ZM 416 303.124L 416.424 303.39L 415.725 302.707L 416 303.124ZM 349.538 410.109L 349.038 410.109L 349.038 411.877L 349.964 410.371L 349.538 410.109ZM 349.538 366.806L 350.038 366.806L 350.038 365.179L 349.125 366.525L 349.538 366.806ZM 0.481203 509.589C 45.268 350.894 76.8761 268.209 145.677 132.684L 144.785 132.231C 75.952 267.82 44.3214 350.567 -0.481203 509.317L 0.481203 509.589ZM 144.771 132.654C 186.146 229.758 202.944 286.396 225.973 389.84L 226.95 389.623C 203.909 286.13 187.094 229.432 145.691 132.262L 144.771 132.654ZM 226.907 389.958C 251.605 341.488 267.069 314.126 295.816 265.169L 294.953 264.662C 266.2 313.63 250.726 341.011 226.016 389.504L 226.907 389.958ZM 295.169 264.464L 263.169 279.748L 263.6 280.65L 295.6 265.367L 295.169 264.464ZM 263.841 280.402C 313.358 169.021 346.13 107.958 409.047 0.2522L 408.184 -0.2522C 345.254 107.476 312.463 168.573 262.928 279.996L 263.841 280.402ZM 408.154 -0.19177C 370.369 90.7894 349.418 142.092 314.608 236.723L 315.546 237.068C 350.349 142.456 371.295 91.1673 409.077 0.19177L 408.154 -0.19177ZM 315.409 237.27L 349.87 206.702L 349.207 205.954L 314.745 236.521L 315.409 237.27ZM 349.087 206.114C 293.698 323.005 267.902 390.616 223.53 511.828L 224.47 512.172C 268.837 390.972 294.621 323.393 349.99 206.542L 349.087 206.114ZM 224.488 511.893C 200.065 400.449 183.422 340.582 141.998 244.34L 141.079 244.735C 182.47 340.9 199.096 400.701 223.512 512.107L 224.488 511.893ZM 141.127 244.254C 78.0483 335.893 47.9269 395.275 -0.460246 509.257L 0.460246 509.648C 48.8297 395.707 78.9209 336.389 141.95 244.821L 141.127 244.254ZM 266.321 512.157C 310.072 379.962 339.547 305.134 402.914 170.88L 402.009 170.453C 338.625 304.745 309.135 379.61 265.371 511.843L 266.321 512.157ZM 402.214 170.232L 366.521 190.611L 367.017 191.479L 402.709 171.101L 402.214 170.232ZM 367.234 191.23C 397.591 115.121 415.824 73.2454 450.912 0.216536L 450.011 -0.216536C 414.912 72.8344 396.67 114.731 366.305 190.86L 367.234 191.23ZM 449.971 0.0980091C 488.675 193.719 501.073 306.258 511.501 512.025L 512.499 511.975C 502.07 306.167 489.667 193.578 450.952 -0.0980091L 449.971 0.0980091ZM 512.494 511.92C 490.331 375.352 474.508 300.216 436.172 170.525L 435.213 170.808C 473.535 300.452 489.349 375.545 511.506 512.08L 512.494 511.92ZM 435.25 170.434C 401.216 235.095 385.125 271.944 361.375 338.618L 362.317 338.954C 386.051 272.324 402.122 235.519 436.135 170.9L 435.25 170.434ZM 362.121 339.204L 416.275 303.542L 415.725 302.707L 361.571 338.368L 362.121 339.204ZM 415.576 302.859C 388.419 346.196 373.799 369.709 349.113 409.848L 349.964 410.371C 374.649 370.236 389.267 346.725 416.424 303.39L 415.576 302.859ZM 350.038 410.109L 350.038 366.806L 349.038 366.806L 349.038 410.109L 350.038 410.109ZM 349.125 366.525C 311.526 421.932 294.008 453.964 265.398 511.778L 266.294 512.222C 294.889 454.436 312.386 422.447 349.952 367.087L 349.125 366.525Z"/>
</defs>
</svg>
